<svg width="140" height="127" viewBox="0 0 140 127" fill="none" xmlns="http://www.w3.org/2000/svg">
<path d="M27.9219 14.7982V0.699554H41.9805V14.7982H27.9219ZM98.0195 0.699554H111.883V14.7982H98.0195V0.699554ZM125.941 42.7997V14.7982H140V70.997H125.941V84.8998H111.883V98.9985H125.941V113.097H140V127H111.883V113.097H98.0195V98.9985H41.9805V113.097H27.9219V127H0V113.097H14.0586V98.9985H27.9219V84.8998H14.0586V70.997H0V14.7982H14.0586V42.7997H27.9219V28.8969H41.9805V14.7982H56.0391V28.8969H83.961V14.7982H98.0195V28.8969H111.883V42.7997H125.941ZM56.0391 56.8984V42.7997H41.9805V56.8984H56.0391ZM98.0195 56.8984V42.7997H83.961V56.8984H98.0195Z" fill="black"/>
</svg>
